<?xml version="1.0" encoding="UTF-8"?>
<svg id="Layer_1" xmlns="http://www.w3.org/2000/svg" viewBox="0 0 708.66 708.66">
  <defs>
    <style>
      .cls-1 {
        fill: #270d02;
      }

      .cls-2 {
        fill: #ee4e2f;
      }

      .cls-3 {
        fill: #f17621;
      }

      .cls-4 {
        fill: #e64724;
      }

      .cls-5 {
        fill: none;
      }

      .cls-6 {
        fill: #ee6124;
      }

      .cls-7 {
        fill: #df3a26;
      }

      .cls-8 {
        fill: #c62227;
      }

      .cls-9 {
        fill: #ef6022;
      }
    </style>
  </defs>
  <g id="Logo_Color">
    <g id="Fenix">
      <path class="cls-9" d="M326.84,307.33l-.03.02c-.99.7-1.98,1.4-2.98,2.1-28.44,20.06-57.02,39.88-88.96,54.24-5.28,2.37-10.66,4.26-16.37,5.72-4.2,1.07-8.57,1.92-13.22,2.52,0,0,0,0,0,0,5.29-5.37,10.83-10.06,16.16-15.02,4.2-3.9,8.26-7.97,11.98-12.67,0,0,0,0,0,0-1.59.55-3.17,1.07-4.74,1.57-10.54,3.32-20.71,5.25-32.28,4.05,0,0,0,0,.01,0,15.07-5.58,24.78-16.55,35.62-26.18.36-.32.71-.64,1.07-.95,0,0,0,0,0,0-10.06,4.67-20.51,5.07-31.98,4.29.71-.35,1.42-.68,2.12-1.01,2.63-1.25,5.19-2.42,7.7-3.59,3.28-1.53,6.46-3.05,9.53-4.71.75-.41,1.5-.82,2.24-1.25,8.95-5.16,17.73-10.61,26.49-16.08,2.42-1.51,4.83-3.02,7.25-4.53,13.88-8.68,27.76-17.34,41.47-26.28,10.41-6.79,20.78-13.66,31.1-20.59,5.6-3.76,11.18-7.53,16.75-11.32,8.74-5.95,17.49-11.91,26.01-18.16,3.06-2.25,6.09-4.54,9.08-6.88,2.78-2.17,5.54-4.38,8.24-6.66.26-.21.49-.47.72-.73.44-.52.86-1.08,1.34-1.56.63-.63,1.38-1.12,2.47-1.1.09-.08.25-.27.46-.53,1.02-1.26,3.18-4.18,3.5-4.65,9.7-13.98,16.94-24.22,26.51-38.29,2.8-4.11,5.22-8.48,8.32-13.57-1.22.66-1.5.79-1.74.96-22,15.08-43.85,30.36-66.01,45.19-24.82,16.61-49.94,32.77-74.88,49.2-19.09,12.58-38.02,25.41-57.19,37.87-20.8,13.53-41.89,26.6-62.64,40.19-9.71,6.37-14.84,14.12-3.2,25.83,13.47,13.54,18.73,29.79,11.95,48.91-4.41,12.43-25.37,28.75-37.98,28.57-.21-.04-.42-.07-.63-.1-.4-.06-.81-.12-1.21-.2-.2-.04-.4-.09-.6-.16-.34-.11-.66-.25-.98-.41-.31-.15-.61-.31-.92-.45-1.99.2-3.97.39-7.99.78,12.34,3.6,21.78,8.88,31.56,13.43,28.35,8.24,57.33,3.79,83.51-9.38.57-.29,2.32-1.08,2.32-1.08-3.57-3.07-8.13-1.99-12.22-2.82-10.8-2.19-21.61-4.19-31.58-11.04,6.78-.89,12.86-1.49,18.87-2.5,14.93-2.49,27.98-10.01,41.86-15.52,1.85-.74,7.56-2.56,7.56-2.56,46.03-26.15,80.33-62.67,111.16-103.97-.77-.19-1.1-.39-1.35-.32-14.54,4.5-29.07,9.02-43.6,13.53-.91.91-1.82,1.82-2.73,2.73l-6.95,5.13Z"/>
      <g>
        <polygon class="cls-5" points="285.08 308.57 285.08 308.57 285.08 308.56 285.07 308.57 285.08 308.57"/>
        <path class="cls-5" d="M310.26,289.45c-.05.04-.11.09-.17.13.05-.04.11-.08.17-.13,19.49-15.01,36.89-32.25,53.35-50.46,5.02-5.56,9.97-11.17,14.78-16.9-4.81,5.73-9.76,11.35-14.78,16.9-16.46,18.21-33.86,35.45-53.35,50.46Z"/>
        <path class="cls-5" d="M287.2,310.69s-.02,0-.02,0h0s0,0,.01,0Z"/>
        <path class="cls-5" d="M306.75,308.7l3.21-.89c-1.05.28-2.09.57-3.21.89Z"/>
        <path class="cls-5" d="M51.65,413.32c-.94.56-1.96,1.03-2.75,1.77.8-.71,1.8-1.21,2.75-1.77Z"/>
        <path class="cls-3" d="M309.97,307.82l-3.21.89s-.06.02-.1.03c-6.19,1.76-11.21,2.44-17.69,2.25-.68-.02-1.26-.11-1.76-.3,0,0,0,0-.01,0h0c-.91-.29-2.13-.67-2.29-1.37-.03-.14-.04-.38.18-.74h0s0,0,0,0c.03-.16,1.03-1.05,1.53-1.44,7.83-5.85,15.74-11.59,23.48-17.54.05-.04.11-.09.17-.13,19.49-15.01,36.89-32.25,53.35-50.46,5.02-5.55,9.97-11.17,14.78-16.9,5.3-6.33,10.43-12.8,15.25-19.52-1.09-.02-1.84.47-2.47,1.1-.48.48-.9,1.04-1.34,1.56-.23.26-.46.52-.71.73-2.71,2.28-5.46,4.49-8.25,6.66-2.99,2.34-6.02,4.63-9.08,6.88-8.52,6.26-17.26,12.22-26.01,18.17-5.57,3.79-11.16,7.56-16.76,11.32-10.32,6.93-20.68,13.8-31.1,20.59-13.71,8.94-27.59,17.6-41.47,26.28-2.42,1.51-4.83,3.02-7.25,4.53-8.76,5.48-17.54,10.93-26.49,16.08-.74.43-1.49.84-2.24,1.25-3.07,1.66-6.25,3.18-9.53,4.71-2.5,1.16-5.06,2.34-7.7,3.59-.7.33-1.41.67-2.12,1.01,11.47.78,21.92.38,31.98-4.29,0,0,0,0,0,0,0,0,0,0,0,0-.36.31-.72.63-1.07.95-10.84,9.63-20.56,20.6-35.62,26.18,11.57,1.2,21.73-.73,32.27-4.05,1.57-.49,3.15-1.02,4.74-1.57,0,0,0,0,0,0,0,0,0,0,0,0-3.72,4.7-7.79,8.76-11.98,12.67-5.33,4.96-10.86,9.65-16.16,15.02,4.65-.6,9.02-1.45,13.22-2.52,5.7-1.46,11.09-3.34,16.37-5.72,31.95-14.36,60.52-34.18,88.96-54.24.99-.7,1.98-1.4,2.97-2.1.01,0,.03-.02.04-.03l6.95-5.13,1.34-1.34s-10.94,3.11-14.59,4.11c-4.77,1.31-7.7,2.07-10.57,2.84Z"/>
        <g>
          <path class="cls-5" d="M51.65,413.32c-.94.56-1.96,1.03-2.75,1.77.8-.71,1.8-1.21,2.75-1.77Z"/>
          <path class="cls-7" d="M433.22,144.19c-.7-.73-1.19-.33-1.85.12-29.1,19.79-58.1,39.75-87.37,59.3-33.43,22.34-67.04,44.41-100.69,66.41-25.44,16.64-51.1,32.93-76.61,49.47-8.83,5.73-10.81,14.86-4.37,21.96,11.7,12.9,20.48,26.26,17.07,45.23-2.66,14.8-22.94,33.45-39.65,34.19-1.7.08-4.73-2.01-6.13-2.98-3.6-2.48-6.85-4.47-.01-7.52,5.05-2.26,8.57-6.7,10.44-13.13-7.44,5.01-14.95,5.64-22.75,4.41-.66-.11-1.29-.39-1.94-.59.44-.48.81-1.05,1.32-1.41,6.6-4.55,11.75-10.21,14.54-18.65-1.56,1.18-2.5,2.01-3.54,2.67-15.19,9.58-32.27,13.48-49.67,16.18-12.92,2-24.9,5.68-34.95,14.63-2.89,2.57-4.51,6.28-7.56,8.7.12.09.1.3.21.4,2.13,1.97,5.58,2.15,7.82,3.75.84.6,1.51,1.4,1.86,2.57.93-.28,2.05.22,3.06.65.12.05.24.1.35.15.03.01.07.03.1.04,1.15.46,2.47,1.93,3.85.18-.08-.02-.15-.04-.23-.06-.12-.03-.24-.07-.35-.1-.21-.05-.42-.11-.62-.16-.41-.11-.82-.24-1.19-.43-1.67-.85-3.28-1.82-4.92-2.74,1.72-.85,3.44-1.67,5.15-2.54,5.45-2.77,10.69-5.85,15-10.29-1.41.95-2.79,1.19-4.16,1.06-1.66-.15-3.3-.84-4.94-1.47-2.53-.97-5.07-1.8-7.71-.27-.08.05-.51-.49-.78-.77,0,0-.01-.01-.02-.02,4.37-4.56,9.93-6.91,15.84-8.64,1.23-.26,2.46-.51,3.69-.76,10.92-2.26,21.86-4.42,32.71-6.96,3.33-.78,6.57-1.79,9.79-2.98,3.19-1.18,6.35-2.56,9.51-4.1,2.6-1.26,5.2-2.62,7.83-4.09,0,0,0,0,0,0,0,0,0,0,0,0-1.72,4.3-4.23,7.17-7.21,9.69-2.04,1.72-4.63,2.83-5.93,5.37.01.02.02.05.03.07.14.29.29.58.44.88,3.73,2.85,7.98,2.1,12.08,1.77.51-.04,1.01-.08,1.52-.1,1.09-.04,2.17-.26,3.28-.54,1.68-.43,3.42-1.04,5.35-1.53,0,0,0,0,0,0,0,0,0,0,0,0-1.03,1.58-2.15,2.97-3.36,4.22-1.73,1.8-3.63,3.28-5.75,4.46-.04.02-.09.05-.13.08,0,0,0,0,0,0-1.22.67-2.5,1.24-3.85,1.72-1.07,0-2.14-.02-3.21-.07-.14,0-.28,0-.41-.02-1-.05-1.99-.12-2.99-.2-.23-.02-.45-.04-.68-.06-.94-.09-1.88-.18-2.82-.29-.29-.03-.59-.07-.88-.11-.67-.08-1.33-.17-2-.26-3.1-.42-6.19-.91-9.28-1.36-.68-.1-1.36-.19-2.03-.29-.58-.08-1.17-.15-1.75-.23-.44-.05-.87-.1-1.31-.15-.49.38-1.04.7-1.53,1.08-.59.46-1.09,1.02-1.29,1.88h0s-.04.26-.04.26c-.04.07-.06.14-.09.21-.05.1-.08.21-.12.32-.47,1.48-.15,3.45-1.93,4.02-3.93,1.29-8.51,1.63-11.9,3.72-2.39,1.48-3.43,5.1-4.92,7.89-3.73,6.97-9.38,8.67-16.5,5.78-2.08-.85-3.83-.41-5.74.9,1.31,1,2.55,1.93,3.76,2.86,6.28.54,12.55,1.09,18.83,1.63.05.31.1.63.15.94-3.82.74-7.65,1.49-11.47,2.23,7.14-.27,13.59,2.56,20,5.9,3.49,1.82,6.97,3.79,10.54,5.5,3.83,1.12,7.62,2.39,11.39,3.72,8.48,3,16.88,6.35,25.5,9.26,10.49,3.53,21.3,6.39,33,7.09-3.03-1.92-5.12-3.23-7.2-4.55-8.2-4.7-15.14-10.94-21.58-17.79.33-.16.65-.33.97-.49,1.05.34,2.09.65,3.14.94,21.72,6.09,42.29,2.21,64.05-4.75,11.18-3.57,20.43-9.57,29.58-16.18l8.78-6.38s-1.75.79-2.32,1.08c-26.18,13.18-55.16,17.62-83.51,9.38-9.78-4.55-19.22-9.83-31.56-13.43,4.02-.39,6-.58,7.99-.78.31.14.61.3.92.45.32.16.65.3.98.41.2.06.4.11.6.16.4.09.8.14,1.21.2.21.03.42.06.63.1,12.61.18,33.57-16.14,37.98-28.57,6.78-19.12,1.52-35.37-11.95-48.91-11.64-11.71-6.51-19.46,3.2-25.83,20.75-13.59,41.84-26.66,62.64-40.19,19.17-12.46,38.1-25.29,57.19-37.87,24.94-16.43,50.06-32.59,74.88-49.2,22.16-14.83,44.01-30.11,66.01-45.19.24-.17.52-.3,1.74-.96-3.1,5.09-5.52,9.46-8.32,13.57-9.58,14.07-16.81,24.31-26.51,38.29-.32.46-2.48,3.39-3.5,4.65-.16.21-.32.4-.46.53,0,0,0,0,0,0-4.82,6.72-9.95,13.2-15.25,19.52-4.81,5.73-9.76,11.35-14.78,16.9-16.46,18.21-33.86,35.45-53.35,50.46-.05.04-.11.08-.17.13-7.75,5.95-15.65,11.7-23.48,17.54-.5.4-1.5,1.28-1.53,1.44,0,0,0,0,0,0,0,0,0,0,0,0-.22.36-.21.6-.18.74.16.7,1.38,1.08,2.29,1.36,0,0,.01,0,.02,0,.5.18,1.08.27,1.76.3,6.48.19,11.5-.49,17.69-2.25.03,0,.06-.02.1-.03,1.12-.32,2.16-.6,3.21-.89,2.87-.78,5.8-1.53,10.57-2.84,3.66-1,14.59-4.11,14.59-4.11.91-.91.48-.48,1.39-1.39-1.94.6-3.86,1.27-5.81,1.81-8.08,2.23-24.6,6.96-32.86,8.33-4,.67-7.53.84-11.61-.58,0,0,2.39-1.9,3.75-2.91.15-.12.29-.22.41-.3.04-.03.09-.07.13-.1,13.23-9.39,26.08-19.15,38.12-29.96,25.62-23,48.34-48.55,68.98-76.12,12.66-16.92,24.35-34.55,35.57-52.43.65-1.03,1.01-1.99.02-3.02Z"/>
        </g>
      </g>
      <path class="cls-9" d="M50.08,445.81c5.86-1.14,11.72-2.27,17.58-3.41,3.83-.74,7.65-1.49,11.47-2.23-.05-.31-.1-.63-.15-.94-6.28-.54-12.55-1.09-18.83-1.63-3.15.76-6.32.8-9.47.1-.71-.16-1.28-.39-1.73-.69-1.59-1.01-1.78-2.78-1.19-4.96.37-1.35.95-1.95,1.63-2.15-.36-1.17-1.02-1.97-1.86-2.57-2.23-1.59-5.69-1.78-7.82-3.75-.11-.1-.09-.31-.21-.4-.8.64-1.69,1.19-2.74,1.61-8.41,3.33-15.3,8.64-19.82,16.73-2.9,5.2-3.8,13.9-1.48,17.24,2.5-7.5,8.57-9.76,15.55-11.03,5.86-1.07,11.67-1.07,17.45-.49h0s0,0,0,0l1.62-1.43ZM37.62,435.27c-.15.04-.3.08-.45.11-.1.02-.23-.07-.36-.21-.2-.2-.42-.51-.62-.7.73-.39,1.42-.88,2.18-1.12.03-.01.07-.01.11-.01.17,0,.39.1.7.26.31.16.7.37,1.25.61-1.33.5-2.11.87-2.82,1.07Z"/>
      <path class="cls-9" d="M69.14,406.01c1.56.98,3.65.47,5.41.91,7.13.43,14.28.79,21.41,1.31.08,0,.16.01.24.02.64.05,1.29.1,1.93.17.14.01.28.03.41.04.64.07,1.28.13,1.93.21,0,0,0,0,0,0,0,0-.01,0-.02.01.44.05.87.1,1.31.15.58.07,1.17.15,1.75.23.68.09,1.36.19,2.03.29,3.1.45,6.19.94,9.28,1.36.67.09,1.33.18,2,.26.29.04.59.07.88.11.94.11,1.88.21,2.82.29.23.02.45.04.68.06.99.08,1.99.15,2.99.2.14,0,.28.01.41.02,1.07.05,2.14.07,3.21.07,1.35-.48,2.64-1.05,3.85-1.72,0,0,0,0,0,0,.04-.02.09-.05.13-.08,2.12-1.18,4.02-2.66,5.75-4.46,1.2-1.25,2.33-2.64,3.36-4.22,0,0,0,0,0,0-1.93.49-3.67,1.09-5.35,1.52-1.11.29-2.19.5-3.28.54-.5.02-1.01.06-1.52.1-4.11.33-8.35,1.07-12.08-1.77-.14-.29-.29-.59-.43-.88-.01-.02-.02-.05-.03-.07,0,0,0,0,0,0,1.3-2.54,3.89-3.64,5.93-5.36,2.99-2.52,5.49-5.39,7.21-9.69,0,0,0,0,0,0-2.63,1.46-5.23,2.82-7.83,4.09-3.16,1.53-6.32,2.91-9.51,4.1-3.21,1.19-6.46,2.2-9.79,2.98-10.85,2.54-21.79,4.7-32.71,6.96-1.23.25-2.46.51-3.69.76.36.72.81,1.2,1.32,1.52Z"/>
      <path class="cls-4" d="M60.15,437.6c-1.21-.92-2.45-1.87-3.76-2.86,1.91-1.31,3.66-1.75,5.74-.9,7.12,2.89,12.77,1.19,16.5-5.78,1.49-2.79,2.53-6.41,4.92-7.89,3.39-2.09,7.97-2.43,11.9-3.72,1.78-.58,1.46-2.54,1.93-4.02.04-.11.07-.22.12-.32.03-.07.06-.14.09-.21l.04-.25h0c.19-.87.69-1.42,1.29-1.88.49-.38,1.03-.7,1.53-1.08,0,0,.01,0,.02-.01,0,0,0,0,0,0-.64-.08-1.28-.15-1.93-.21-.14-.01-.28-.03-.41-.04-.64-.06-1.28-.12-1.93-.17-.08,0-.16-.01-.24-.02-7.13-.52-14.28-.88-21.41-1.31-1.76-.44-3.85.07-5.41-.91-.51-.32-.96-.8-1.32-1.52-5.91,1.73-11.47,4.08-15.84,8.64,0,0,.01.01.02.02.28.28.71.81.78.76,2.64-1.53,5.18-.7,7.71.27,1.64.63,3.28,1.32,4.94,1.47,1.37.12,2.75-.12,4.16-1.07.21-.17.43-.34.64-.52.07-.15.14-.28.22-.4.79-1.16,2.24-.54,3.07-.42,1.13.16,2.25.23,3.37.26,2.61.08,5.2-.12,7.79-.35,2.38-.22,4.75-.45,7.14-.51h1.88s0,0,0,0h.02c.32.48.64.97.96,1.45.3,2.28-1.58,1.32-2.45,1.49-6.55,1.34-11.35,4.13-14.58,10.76-4.18,8.58-8.4,9.16-18.59,5.09-.71-.29-1.52-.35-2.28-.51-.01,0-.02,0-.03,0-1.38,1.75-2.7.28-3.85-.18-.03-.01-.07-.03-.1-.04-.12-.05-.23-.1-.35-.15-1.01-.43-2.13-.93-3.06-.65-.68.2-1.26.81-1.63,2.15-.59,2.18-.4,3.96,1.19,4.96.45.29,1.01.51,1.7.67,3.15.7,6.35.68,9.5-.08Z"/>
      <path class="cls-9" d="M94.68,414.11c-.32-.48-.64-.97-.96-1.45h-.02c-.63,0-1.25,0-1.88,0-2.38.05-4.76.29-7.14.5-2.59.23-5.18.43-7.79.35-1.12-.03-2.24-.1-3.37-.26-.83-.12-2.28-.73-3.07.42-.08.12-.16.24-.22.4,0,0,0,0,0,0,8.15,1.25,16.3.57,24.46.03Z"/>
      <path class="cls-1" d="M59.07,431.44c10.18,4.07,14.41,3.49,18.59-5.09,3.23-6.63,8.03-9.42,14.58-10.76.86-.18,2.75.78,2.45-1.49-8.15.54-16.31,1.22-24.46-.03-.21.17-.42.35-.64.52-4.31,4.44-9.55,7.52-15,10.29-1.71.87-3.43,1.69-5.15,2.54,1.64.92,3.24,1.89,4.92,2.74.37.19.78.32,1.19.43.21.06.41.11.62.16.12.03.24.06.35.1.08.02.16.04.23.06.01,0,.02,0,.03,0,.76.17,1.56.23,2.28.51ZM61.23,429.18c2.68-3.27,5.78-5.92,11.08-6.01.71.12,1.6.67,1.76,2.44.35,4.07-1.68,6-5.42,6.13-2.18.08-4.38-.55-6.57-.88-1.06-.16-1.48-.91-.84-1.69Z"/>
      <path class="cls-1" d="M39.19,433.59c-.32-.16-.53-.26-.7-.26-.04,0-.07,0-.11.01-.77.24-1.46.73-2.18,1.12.2.19.41.5.61.7.13.14.26.23.36.21.15-.03.3-.06.45-.11.71-.2,1.48-.56,2.82-1.06-.54-.24-.94-.45-1.24-.61Z"/>
      <path class="cls-1" d="M61.93,430.96c2.25.34,4.51.98,6.75.9,3.84-.13,5.92-2.12,5.56-6.3-.16-1.82-1.08-2.38-1.8-2.51-5.44.09-8.62,2.82-11.37,6.17-.65.79-.22,1.57.86,1.73Z"/>
      <path class="cls-8" d="M239.36,459.17c15.75-9.76,31.36-19.82,45.32-32.13,7.63-6.73,23.03-20.03,30.36-27.09,5.49-5.28,10.34-11.21,15.19-17.14.22-.37.43-.75.64-1.12-.52-.06-1.07-.26-1.56-.17l-26.26,4.82c-5.56,6.62-11.13,12.09-17.82,16.69-2.11,1.45-9.85,6.44-12.06,7.73-8.84,5.13-17.76,10.19-27.34,13.92l-8.78,6.38c-9.15,6.61-18.4,12.61-29.58,16.18-21.76,6.96-42.33,10.84-64.05,4.75-1.04-.29-2.09-.6-3.14-.94-.32.16-.64.33-.97.49,6.44,6.85,13.38,13.09,21.58,17.79,2.08,1.32,4.17,2.63,7.2,4.55-11.7-.7-22.52-3.56-33-7.09-8.62-2.9-17.01-6.26-25.5-9.26-3.77-1.33-7.55-2.59-11.37-3.71t-.02-.01c-3.57-1.71-7.05-3.68-10.54-5.5-6.41-3.34-12.87-6.17-20-5.9-5.85,1.14-11.71,2.27-17.57,3.41l-1.62,1.43s0,0,0,0c.03,0,3.42.39,5.61.88,2.14.47,8.04,2.09,9.39,2.74,9.55,4.56,18.09,10.61,26.33,17.16,6.72,4.76,13.27,9.78,20.2,14.21,12.45,7.98,25.67,14.47,40.64,15.7,8.51.7,16.23-3.53,23.9-6.57,22.49-8.9,44.24-19.44,64.83-32.19Z"/>
      <path class="cls-4" d="M220.89,408.31c-6.01,1.01-12.09,1.61-18.87,2.5,9.97,6.85,20.78,8.85,31.58,11.04,4.09.83,8.65-.25,12.22,2.82,9.58-3.73,18.5-8.79,27.34-13.92,2.22-1.29,9.95-6.27,12.06-7.73,6.69-4.6,12.26-10.06,17.82-16.69-11.43,1.41-32.74,3.89-32.74,3.89,0,0-5.71,1.82-7.56,2.56-13.88,5.51-26.93,13.03-41.86,15.52Z"/>
    </g>
    <g id="Auto">
      <path class="cls-9" d="M471.34,450.93c-15.42,2.64-31.3.67-46.96.89-2.41.03-4.75.32-4.8,3.32,0,0-.14,14.92-.14,26.11,0,.83,3.08,5.99,4.26,7.69,0,0,0,0,.01,0,1.38-.13,2.78-.2,4.2-.2,17.47,0,32.55,10.22,39.59,25.01,0,0,.01.02.02.03,3.11-18.46,6.25-39.04,9.81-56.7,1.32-6.56,2.12-7.53-5.98-6.14Z"/>
      <path class="cls-9" d="M427.91,500.25c-17.85,0-32.32,14.46-32.32,32.31s14.47,32.31,32.32,32.31,32.31-14.47,32.31-32.31-14.47-32.31-32.31-32.31ZM427.91,549.75c-9.5,0-17.2-7.69-17.2-17.19s7.7-17.19,17.2-17.19,17.19,7.69,17.19,17.19-7.7,17.19-17.19,17.19Z"/>
      <path class="cls-9" d="M183.7,505.01c-16.54,0-29.94,13.4-29.94,29.93s13.41,29.93,29.94,29.93,29.93-13.41,29.93-29.93-13.41-29.93-29.93-29.93ZM183.7,550.87c-8.8,0-15.93-7.12-15.93-15.92s7.13-15.92,15.93-15.92,15.92,7.12,15.92,15.92-7.13,15.92-15.92,15.92Z"/>
      <path class="cls-6" d="M271.38,519.23c31.38,5.21,43.76,14.83,67.89,13.78,12.29-.54,28.53-3.88,47.44-15.46.4-1.08.86-2.19,1.39-3.33,2.44-5.29,5.89-10,10.12-13.9-.18-.32-.48-.63-.91-.98-5.75-4.55-15.19-11.36-20.94-15.91-18.08-14.29-38.7-22.44-61.49-25.09-2.99-.35-7.89-.95-9.37.53-1.19,1.19,1.62,5.6,3.17,7.82,9.72,13.89,10.67,9.96-1.11,21.63-10.92,10.81-15.54,14.25-30.54,14.25-18.66,0-41.11-.18-60.51-.18l-7.67,1.47c4.46,3.61,8.12,8.17,10.69,13.36,0,0,0,0,.01,0,13.09-1.11,31.03-1.45,51.83,2Z"/>
      <path class="cls-7" d="M386.72,517.55s0,0,0,0c-18.91,11.58-35.15,14.92-47.44,15.46-24.13,1.05-36.51-8.57-67.89-13.78-20.8-3.46-38.74-3.11-51.83-2,0,0,0,0,0,0,.83,1.68,1.7,3.73,2.42,6.12.64,2.12,1.11,4.31,1.39,6.57.03.02.06.05.08.06l42.53,24.71h124.1v-.02c-3.8-6.49-5.99-14.04-5.99-22.1,0-5.27.93-10.33,2.64-15.01Z"/>
      <path class="cls-2" d="M271.51,486.27c-6.62,1.61-12.27,4.84-16.57,11.69,8.08,0,15.13.05,22.41.05,9.41,0,16.78-3.91,23.49-9.83.53-.47,1.87-2.16,2.2-2.85-1,0-2.64,0-3.37,0-6.56,0-12.2-.02-19.11-.02-3.03,0-6.12.25-9.05.96Z"/>
      <path class="cls-7" d="M78.28,543.52c-3.39,1.94-5.79,4.18-5.79,4.18-2,2.28,1.83,5.24,4.49,6.19l2.23.8s69.72,0,69.72,0h0c-2.81-5.83-4.43-12.56-4.43-19.74,0-.11,0-.21,0-.32v-.02s-59.46,7.6-59.46,7.6c-2.2.43-6.77,1.32-6.77,1.32Z"/>
      <path class="cls-6" d="M148.92,515.21v-.04s-43.99,17.36-43.99,17.36c-8.91,3.59-17.77,7.32-26.65,10.99,2.24-.44,4.48-.88,6.72-1.31l59.5-7.6v-.03c.06-7.04,1.66-13.64,4.42-19.36Z"/>
    </g>
    <path id="Upiita" class="cls-3" d="M694.5,493.42c-.21-4.17-2.34-5.92-6.48-5.08-2.3.46-4.45,1.36-6.53,2.4-10.95,5.46-21.01,12.26-30.45,20.04-3.36,2.77-6.69,5.6-10.56,8.2-3.82-4.56-7.49-8.87-11.08-13.25-10.32-12.59-20.77-25.06-32.69-36.2-6.11-5.72-12.7-10.84-20.38-14.34-6.25-2.86-12.74-4.58-19.69-3.66-.93.12-2.19.3-2.19.3,0,0-.23-1.4-.42-2.58-3.29-19.71-6.34-39.44-11.12-58.85-4.32-17.56-9.32-34.9-17.89-50.99-3.2-6.03-6.95-11.65-12.14-16.15-6.03-5.23-13.06-8.23-21.11-8.4-10.15-.2-19.05,3.66-27.05,9.44-9.2,6.66-17.26,13.67-25.22,21.78-7.45,7.58-14.4,16.53-20.85,24.95-7.66,10.01-14.28,20.7-20.78,31.49-9.28,15.43-17.69,29.45-24.96,45.95-1.04,2.36-2.26,4.87-3.1,6.56-2.88,5.86-.05,5.1,6.08,8.89,8.52,5.26,6.81,5.7,12.57-5.36,3.34-6.4,6.53-13.07,10.04-19.41,5.39-9.76,11.19-19.18,16.99-28.7,8.94-14.67,18.17-29.15,28.88-42.62,9.46-11.88,20.7-21.63,34.44-28.26,6.01-2.9,12.32-4.55,19.09-3.36,6.43,1.14,11.54,4.55,15.73,9.36,8.12,9.31,12.47,20.38,15.38,32.26,6.12,24.93,11.58,49.98,16.13,75.25.18,1.02.41,2.3.41,2.3,0,0-.61.48-1.11.85-20.25,14.95-60.63,44.53-61.89,48.51-1.82,5.66-2.16,8.71-3.17,13.93-.74,3.81,3.74,2.82,6.69.82,6.1-4.12,12.49-9.25,18.71-13.9,13.98-10.43,27.96-20.88,41.94-31.31.47-.35,1.14-.74,1.68-.87.28.52.36,1.24.47,1.82,1.44,6.98,3.01,13.91,4.9,20.78,4.32,15.73,10.56,30.51,21.4,42.98,2.42,2.77,4.86,5.6,7.95,7.68,5.61,3.77,11.98,4.19,18.37,3.3,11.11-1.55,20.82-6.49,29.74-13.11.86-.64,1.6-1.5,2.69-1.7,1,.24,1.53,1.01,2.13,1.63,2.5,2.57,5.31,4.73,8.28,6.7,10.93,7.27,22.11,3.3,29.46-6.01,6.84-8.67,11.52-18.28,16.19-28.05,2.43-5.06,4.82-10.14,4.52-16.01ZM628.27,530.19c-7.14,4.26-14.83,6.77-23.21,6.37-11.3-.54-20.64-5.27-28.04-13.86-8.24-9.58-12.68-21-16.02-32.95-1.43-5.14-2.58-10.35-3.58-15.6-.16-.85-.31-1.77-.37-2.81,2.9-1.03,6.28-1.02,9.37-.54,5.56.86,10.59,3.19,15.35,6.1,6.45,3.93,12.34,8.61,17.89,13.7,4.1,3.75,7.15,8.44,10.82,12.58,4.95,5.57,9.77,11.25,14.61,16.91,2.12,2.49,4.25,5.2,6.34,7.75-1.04,1.08-2.08,1.7-3.16,2.35ZM685.34,506.46c-3.21,7.93-6.73,15.53-11.24,22.79-1.85,2.97-3.82,5.46-6.31,7.44-3.05,2.42-6.73,2.65-9.77.5-4.18-2.97-8.2-6.17-11.33-10.32-.32-.44-.55-.8-.99-1.6,3.68-3.17,7.63-6.55,11.36-9.74,6.86-5.88,13.89-11.54,21.61-16.28,1.12-.68,2.31-1.19,3.56-1.57,2.2-.68,3.68.18,3.91,2.45.16,1.55-.2,4.87-.8,6.33Z"/>
  </g>
</svg>