<?xml version="1.0" encoding="UTF-8"?>
<svg id="Layer_2" xmlns="http://www.w3.org/2000/svg" viewBox="0 0 708.66 708.66">
  <path d="M239.36,453.92c15.75-9.76,31.36-19.82,45.32-32.13,7.63-6.73,23.03-20.03,30.36-27.09,5.49-5.28,10.34-11.21,15.19-17.14.22-.37.43-.75.64-1.12-.52-.06-1.07-.26-1.56-.17l-26.26,4.82c-11.43,1.41-32.74,3.89-32.74,3.89,46.03-26.15,80.33-62.67,111.16-103.97-.77-.19-1.1-.39-1.35-.32-14.54,4.5-29.07,9.02-43.6,13.53-1.94.6-3.86,1.27-5.81,1.81-8.08,2.23-24.6,6.96-32.86,8.33-4,.67-7.53.84-11.61-.58,0,0,2.39-1.9,3.75-2.91.15-.11.29-.22.41-.3.04-.03.09-.07.13-.1,13.23-9.39,26.08-19.15,38.12-29.96,25.62-23,48.34-48.55,68.98-76.12,12.66-16.92,24.35-34.55,35.57-52.43.65-1.03,1.01-1.99.02-3.02-.7-.73-1.19-.33-1.85.12-29.1,19.79-58.1,39.75-87.37,59.3-33.43,22.34-67.04,44.41-100.69,66.41-25.44,16.64-51.1,32.93-76.61,49.47-8.83,5.73-10.81,14.86-4.37,21.96,11.7,12.9,20.48,26.26,17.07,45.23-2.66,14.8-22.94,33.45-39.65,34.19-1.7.08-4.73-2.01-6.13-2.98-3.6-2.48-6.85-4.47-.01-7.52,5.05-2.26,8.57-6.7,10.44-13.13-7.44,5.01-14.95,5.64-22.75,4.41-.66-.11-1.29-.39-1.94-.59.44-.48.81-1.05,1.32-1.41,6.6-4.55,11.75-10.21,14.54-18.65-1.56,1.18-2.5,2.01-3.54,2.67-15.19,9.58-32.27,13.48-49.67,16.18-12.92,2-24.9,5.68-34.95,14.63-2.89,2.57-4.51,6.28-7.56,8.7-.8.64-1.69,1.19-2.74,1.61-8.41,3.33-15.3,8.64-19.82,16.73-2.9,5.2-3.8,13.9-1.48,17.24,2.5-7.5,8.57-9.76,15.55-11.03,5.86-1.07,11.67-1.07,17.45-.49h0s3.42.39,5.61.88c2.14.47,8.04,2.09,9.39,2.74,9.55,4.56,18.09,10.61,26.33,17.16,6.72,4.76,13.27,9.78,20.2,14.21,12.45,7.98,25.67,14.47,40.64,15.7,8.51.7,16.23-3.53,23.9-6.57,22.49-8.9,44.24-19.44,64.83-32.19Z"/>
  <path d="M471.34,445.68c-15.42,2.64-31.3.67-46.96.89-2.41.03-4.75.32-4.8,3.32,0,0-.14,14.92-.14,26.11,0,.83,3.08,5.99,4.26,7.69,0,0,0,0,.01,0,1.38-.13,2.78-.2,4.2-.2,17.47,0,32.55,10.22,39.59,25.01,0,0,.01.02.02.03,3.11-18.46,6.25-39.04,9.81-56.7,1.32-6.56,2.12-7.53-5.98-6.14Z"/>
  <path d="M427.91,495c-17.85,0-32.32,14.46-32.32,32.31s14.47,32.31,32.32,32.31,32.31-14.47,32.31-32.31-14.47-32.31-32.31-32.31ZM427.91,544.5c-9.5,0-17.2-7.69-17.2-17.19s7.7-17.19,17.2-17.19,17.19,7.69,17.19,17.19-7.7,17.19-17.19,17.19Z"/>
  <path d="M183.7,499.76c-16.54,0-29.94,13.4-29.94,29.93s13.41,29.93,29.94,29.93,29.93-13.41,29.93-29.93-13.41-29.93-29.93-29.93ZM183.7,545.62c-8.8,0-15.93-7.12-15.93-15.92s7.13-15.92,15.93-15.92,15.92,7.12,15.92,15.92-7.13,15.92-15.92,15.92Z"/>
  <path d="M386.72,512.3s0,0,0,0c.4-1.08.86-2.19,1.39-3.33,2.44-5.29,5.89-10,10.12-13.9-.18-.32-.48-.63-.91-.98-5.75-4.55-15.19-11.36-20.94-15.91-18.08-14.29-38.7-22.44-61.49-25.09-2.99-.35-7.89-.95-9.37.53-1.19,1.19,1.62,5.6,3.17,7.82,9.72,13.89,10.67,9.96-1.11,21.63-10.92,10.81-15.54,14.25-30.54,14.25-18.66,0-41.11-.18-60.51-.18l-7.67,1.47c4.46,3.61,8.12,8.17,10.69,13.36,0,0,0,0,.01,0,0,0,0,0,0,0,.83,1.68,1.7,3.73,2.42,6.12.64,2.12,1.11,4.31,1.39,6.57.03.02.06.05.08.06l42.53,24.71h124.1v-.02c-3.8-6.49-5.99-14.04-5.99-22.1,0-5.27.93-10.33,2.64-15.01Z"/>
  <path d="M271.51,481.02c-6.62,1.61-12.27,4.84-16.57,11.69,8.08,0,15.13.05,22.41.05,9.41,0,16.78-3.91,23.49-9.83.53-.47,1.87-2.16,2.2-2.85-1,0-2.64,0-3.37,0-6.56,0-12.2-.02-19.11-.02-3.03,0-6.12.25-9.05.96Z"/>
  <path d="M144.5,529.69c0-.11,0-.21,0-.32v-.02s0-.03,0-.03c.05-7.04,1.65-13.64,4.41-19.36v-.04s-43.99,17.36-43.99,17.36c-8.91,3.59-17.77,7.32-26.65,10.99-3.39,1.94-5.79,4.18-5.79,4.18-2,2.28,1.83,5.24,4.49,6.19l2.23.8s69.72,0,69.72,0h0c-2.81-5.83-4.43-12.56-4.43-19.74Z"/>
  <path d="M694.5,488.17c-.21-4.17-2.34-5.92-6.48-5.08-2.3.46-4.45,1.36-6.53,2.4-10.95,5.46-21.01,12.26-30.45,20.04-3.36,2.77-6.69,5.6-10.56,8.2-3.82-4.56-7.49-8.87-11.08-13.25-10.32-12.59-20.77-25.06-32.69-36.2-6.11-5.72-12.7-10.84-20.38-14.34-6.25-2.86-12.74-4.58-19.69-3.66-.93.12-2.19.3-2.19.3,0,0-.23-1.4-.42-2.58-3.29-19.71-6.34-39.44-11.12-58.85-4.32-17.56-9.32-34.9-17.89-50.99-3.2-6.03-6.95-11.65-12.14-16.15-6.03-5.23-13.06-8.23-21.11-8.4-10.15-.2-19.05,3.66-27.05,9.44-9.2,6.66-17.26,13.67-25.22,21.78-7.45,7.58-14.4,16.53-20.85,24.95-7.66,10.01-14.28,20.7-20.78,31.49-9.28,15.43-17.69,29.45-24.96,45.95-1.04,2.36-2.26,4.87-3.1,6.56-2.88,5.86-.05,5.1,6.08,8.89,8.52,5.26,6.81,5.7,12.57-5.36,3.34-6.4,6.53-13.07,10.04-19.41,5.39-9.76,11.19-19.18,16.99-28.7,8.94-14.67,18.17-29.15,28.88-42.62,9.46-11.88,20.7-21.63,34.44-28.26,6.01-2.9,12.32-4.55,19.09-3.36,6.43,1.14,11.54,4.55,15.73,9.36,8.12,9.31,12.47,20.38,15.38,32.26,6.12,24.93,11.58,49.98,16.13,75.25.18,1.02.41,2.3.41,2.3,0,0-.61.48-1.11.85-20.25,14.95-60.63,44.53-61.89,48.51-1.82,5.66-2.16,8.71-3.17,13.93-.74,3.81,3.74,2.82,6.69.82,6.1-4.12,12.49-9.25,18.71-13.9,13.98-10.43,27.96-20.88,41.94-31.31.47-.35,1.14-.74,1.68-.87.28.52.36,1.24.47,1.82,1.44,6.98,3.01,13.91,4.9,20.78,4.32,15.73,10.56,30.51,21.4,42.98,2.42,2.77,4.86,5.6,7.95,7.68,5.61,3.77,11.98,4.19,18.37,3.3,11.11-1.55,20.82-6.49,29.74-13.11.86-.64,1.6-1.5,2.69-1.7,1,.24,1.53,1.01,2.13,1.63,2.5,2.57,5.31,4.73,8.28,6.7,10.93,7.27,22.11,3.3,29.46-6.01,6.84-8.67,11.52-18.28,16.19-28.05,2.43-5.06,4.82-10.14,4.52-16.01ZM628.27,524.94c-7.14,4.26-14.83,6.77-23.21,6.37-11.3-.54-20.64-5.27-28.04-13.86-8.24-9.58-12.68-21-16.02-32.95-1.43-5.14-2.58-10.35-3.58-15.6-.16-.85-.31-1.77-.37-2.81,2.9-1.03,6.28-1.02,9.37-.54,5.56.86,10.59,3.19,15.35,6.1,6.45,3.93,12.34,8.61,17.89,13.7,4.1,3.75,7.15,8.44,10.82,12.58,4.95,5.57,9.77,11.25,14.61,16.91,2.12,2.49,4.25,5.2,6.34,7.75-1.04,1.08-2.08,1.7-3.16,2.35ZM685.34,501.21c-3.21,7.93-6.73,15.53-11.24,22.79-1.85,2.97-3.82,5.46-6.31,7.44-3.05,2.42-6.73,2.65-9.77.5-4.18-2.97-8.2-6.17-11.33-10.32-.32-.44-.55-.8-.99-1.6,3.68-3.17,7.63-6.55,11.36-9.74,6.86-5.88,13.89-11.54,21.61-16.28,1.12-.68,2.31-1.19,3.56-1.57,2.2-.68,3.68.18,3.91,2.45.16,1.55-.2,4.87-.8,6.33Z"/>
</svg>