<?xml version="1.0" encoding="UTF-8"?>
<svg id="Layer_1" xmlns="http://www.w3.org/2000/svg" viewBox="0 0 708.66 708.66">
  <defs>
    <style>
      .cls-1 {
        fill: #4884c4;
      }
    </style>
  </defs>
  <g>
    <path class="cls-1" d="M272.88,331.31c-12.21,2.35-23.98,4.3-36.47,3.44-9.04-.62-17.13-3.34-22.72-10.85-6.39-8.58-8.78-20.48-9.23-30.96-.43-10.27.51-22.79,5.86-31.83,10.78-18.25,38.05-17.41,56.35-17.43,12.25-.01,24.2.73,36.33-1.51,11.19-2.07,21.98-5.96,32.05-11.25,10.3-5.41,19.64-12.29,28.64-19.62,8.31-6.76,16.25-13.02,26.66-16.23,10.82-3.34,22.37-3.36,33.54-2.28,12.07,1.17,24.12,3.43,35.9,6.28,46.84,11.32,91.96,31.71,134.15,54.68,10.24,5.57,20.32,11.46,30.04,17.9,9.26,6.14,19.01,12.55,26.2,21.14,6.99,8.35,10.55,19.59,2.59,28.72-7.11,8.15-20.21,9.39-30.29,9.2-2.77-.05-5.54-.25-8.3-.52-2.41-.24-5.68-.12-7.84-1.38,2.03-.52,4.51.08,6.58.17,2.93.13,5.86.16,8.79.02,5.63-.26,11.26-1.12,16.61-2.93,8.44-2.86,16.56-10.48,12.35-20.24-4.02-9.31-14.41-16-22.39-21.57-9.11-6.35-18.65-12.06-28.26-17.6-39.98-23.02-83.02-42.38-127.32-55.37-22.36-6.55-45.97-12.02-69.42-10.47-9.67.64-18.82,4.12-26.59,9.89-8.36,6.21-15.85,13.4-24.51,19.27-17.97,12.17-38.45,20.32-60.21,21.9-11.68.85-23.38-.3-35.07.13-10.16.37-21.62.68-31,5.07-7.24,3.39-11.77,9.65-13.44,17.4-2.31,10.71-2.4,22.1.24,32.75,2.09,8.43,5.64,16.83,13.64,21.13,8.52,4.58,19.64,3.84,28.98,3.57,5.81-.17,11.61-.61,17.39-1.22.06.2.11.4.17.61Z"/>
    <path class="cls-1" d="M527.96,330.29c.01-18.24,12.35-33.43,30.18-36.31,12.84-2.08,23.62,2.49,31.96,12.39,11.18,13.27,11.37,32.56,1.35,46.27-13.3,18.2-37.43,19.46-52.1,4.9-7.72-7.67-11.4-16.46-11.39-27.24Z"/>
    <path class="cls-1" d="M281.22,330.52c-.27-14.44,8.62-28.61,21.97-34.29,15.16-6.45,32.02-.81,41.53,12.3,8.59,11.86,8.85,28.52,1.74,41.16-6.93,12.32-20.35,19.12-34.38,17.44-17.76-2.13-31.41-18.79-30.85-36.6Z"/>
  </g>
  <path class="cls-1" d="M93.88,217.51c-7.03.23-12.68.78-19.07.83-1.96.02-1.97.17-2.09,1.7-.35,4.49-2.1,6.05-6.56,6.07-3.11.01-6.23.02-9.34.02-2.68,0-2.79.01-2.79-2.61,0-2.14,0-2.23-1.78-2.23-1.51,0-3.55.02-5.07-.05-.84-.04-1.6,0-1.6-1.25,0-1.05.89-1.14,1.61-1.16,1.68-.04,3.35-.05,5.03-.04,1.54,0,1.81.05,1.81-2.21,0-2.47-.3-2.82-2.04-2.82h-4.35c-1.43,0-2-.21-2-1.31,0-1.27.97-1.25,1.99-1.25,1.6,0,3.02-.02,4.64-.02,1.78,0,1.75-.33,1.75-1.97,0-2.41-.07-2.4,2.75-2.4,3.35,0,6.71,0,10.06.03,3.28.04,5.59-.03,5.74,4.6.07,2.13,1.29,1.92,2.99,1.92.99,0,2.77-.05,3.4-.05,9.65-.03,17.79-1.11,27.44-.64,5.96.29,11.95.65,17.81,1.95,4.73,1.05,9.23,2.71,12.85,6.04,4.88,4.5,5.87,9.78,3.24,15.87-2.22,5.11-5.46,9.53-9.1,13.7-5.31,6.1-11.44,11.3-17.47,16.65-4.72,4.19-9.04,8.79-12.49,14.13-1.09,1.69-1.96,3.47-2.57,5.39-1.82,5.8.6,10.69,6.29,12.92,3.54,1.39,7.25,2.03,10.98,2.28,8.19.54,16.38.83,24.61.28,6.51-.44,13.06-.55,19.57-1.11,8.57-.74,17.14-1.49,25.72-2.25,3.97-.35,7.93-.74,11.9-1.09.3-.03.88.09.88.14,0,.57-.53.39-.83.46-10.78,2.24-21.59,4.29-32.51,5.8-15.5,2.14-31.05,3.68-46.71,3.16-5.9-.19-11.79-.89-17.21-3.58-7.91-3.92-11.01-11.97-7.64-20.14,2.63-6.38,7.01-11.52,11.88-16.32,6.42-6.33,13.8-11.62,19.89-18.3,3.55-3.89,7.02-7.87,9.32-12.68,2.66-5.58,1.75-9.05-3.42-12.45-4.94-3.25-10.65-4.27-16.34-5.01-6.96-.92-14.25-1.23-21.18-1Z"/>
  <g>
    <path class="cls-1" d="M93.24,425.11v6.91h-54.92v49.53h61.37v6.91H31.44v-115.19h66.53v6.91h-59.65v44.92h54.92Z"/>
    <path class="cls-1" d="M118.1,404.87v12.67c8.57-15.14,24.56-15.96,28.84-15.96,24.89,0,26.86,19.25,26.86,29.29v57.59h-7.25v-53.15c0-10.37,0-27.97-19.94-27.97-13.51,0-28.51,8.56-28.51,32.75v48.38h-7.25v-83.59h7.25Z"/>
    <path class="cls-1" d="M262.97,464.27c-1.98,10.7-10.05,27.48-34.94,27.48-6.92,0-38.57-.16-38.57-46.24,0-7.73.99-43.94,38.57-43.94,12.69,0,36.42,3.79,35.93,45.91h-66.91c.16,14.48,5.27,38.5,31.31,38.5,16.15,0,25.22-10.04,27.36-21.72h7.25ZM256.21,441.72c0-12.51-4.45-34.39-28.68-34.39s-30.16,22.21-30.49,34.39h59.17Z"/>
    <path class="cls-1" d="M319.01,410.62h-3.63c-10.71.33-28.51,3.95-28.51,37.85v39.99h-7.25v-83.59h7.25v17.28h.33c3.96-10.37,14.34-18.92,28.02-18.92h3.79v7.41Z"/>
    <path class="cls-1" d="M331.37,499.65c2.14,7.9,9.23,14.81,24.39,14.81,6.26,0,27.36-1.65,27.36-31.26v-9.87c-4.29,10.7-15,16.46-27.52,16.46-35.6,0-36.59-37.02-36.59-44.1,0-28.14,13.19-44.1,34.61-44.1,16.81,0,25.38,8.39,29.17,16.78h.33v-13.49h7.25v77.34c0,11.19-.5,38.01-35.27,38.01-9.23,0-27.36-1.32-31.97-20.57h8.24ZM383.45,446.66c0-25.67-10.05-39.33-29.17-39.33-26.53,0-27.69,29.62-27.69,38.18,0,30.44,16.32,38.5,29.83,38.5s27.03-7.08,27.03-37.35Z"/>
    <path class="cls-1" d="M414.43,512.81c2.8.49,4.94.49,5.77.49,8.57,0,10.22-3.46,14.17-15.3l3.13-9.38-33.95-83.76h8.74l29.01,75.04,26.37-75.04h7.42l-35.27,97.08c-2.8,7.57-5.11,17.61-18.95,17.61-1.48,0-3.79-.16-6.43-.66v-6.09Z"/>
  </g>
  <g>
    <path class="cls-1" d="M583.51,424.63v6.91h-54.92v49.53h61.37v6.91h-68.25v-115.19h66.53v6.91h-59.65v44.92h54.92Z"/>
    <path class="cls-1" d="M688.01,372.79h8.9l-41.2,115.19h-10.55l-41.2-115.19h8.9l37.58,107.29,37.58-107.29Z"/>
  </g>
</svg>